<svg height="480pt" viewBox="-53 0 480 480" width="480pt" xmlns="http://www.w3.org/2000/svg"><path d="m288.828125 336h-13.601563c.015626-.898438-.125-1.796875-.414062-2.648438-1.128906-3.21875-4.175781-5.367187-7.585938-5.351562h-40v-27.625c13.769532-2.648438 27.03125-7.453125 39.304688-14.230469-.644531 5.324219-1.714844 10.589844-3.199219 15.742188-1.710937 6.191406-3.839843 13.890625 3.03125 17.402343 2.515625 1.378907 5.507813 1.605469 8.199219.613282 8.136719-2.65625 19.761719-16.269532 26.550781-31.199219l.457031-1.078125c.730469-1.738281 1.480469-3.527344 2.136719-5.425781.441407-1.199219.976563-2.363281 1.601563-3.480469.269531 1.445312.453125 2.902344.550781 4.371094.40625 9.625-.863281 19.246094-3.746094 28.4375-1.726562 6.28125-3.886719 14.097656 3.082031 17.746094 1.402344.769531 2.980469 1.171874 4.582032 1.167968 1.238281-.011718 2.464844-.21875 3.632812-.617187 7.875-2.625 18.921875-15.25 25.929688-29.425781 1.214844 5.515624 1.484375 11.195312.800781 16.800781-1.734375 3.554687-.617187 7.839843 2.636719 10.089843 3.25 2.25 7.65625 1.785157 10.371094-1.089843 25.320312-26.808594 22.269531-77.960938 19.574218-123.078125-.785156-12.679688-1.496094-24.664063-1.496094-35.121094 0-92.632812-82.542968-168-184-168-101.457031 0-184 75.367188-184 168 0 10.457031-.710937 22.441406-1.472656 35.128906-2.695312 45.117188-5.742187 96.269532 19.578125 123.078125 2.714844 2.886719 7.132813 3.351563 10.386719 1.089844 3.257812-2.257813 4.367188-6.558594 2.613281-10.113281-1.671875-6.0625-1.65625-12.464844.046875-18.519532 6.894532 14.808594 18.519532 28.398438 26.71875 31.136719 1.179688.398438 2.414063.609375 3.65625.625 1.546875.007813 3.070313-.367187 4.433594-1.097656 7.097656-3.726563 4.9375-11.542969 3.199219-17.824219-2.882813-9.1875-4.148438-18.804687-3.742188-28.425781.144531-1.992187.429688-3.972656.855469-5.925781.507812 1.953125 1.082031 3.875 1.726562 5.769531.800782 2.398437 1.769532 4.71875 2.785157 7.023437 6.847656 15.085938 18.742187 29.078126 27.078125 31.855469 2.644531.988281 5.578125.816407 8.089844-.472656 7.09375-3.726563 4.933593-11.542969 3.199218-17.824219-2.113281-7.128906-3.371094-14.484375-3.742187-21.910156 11.769531 7.859375 24.832031 13.578125 38.589843 16.894531v29.511719h-40c-3.398437 0-6.425781 2.144531-7.550781 5.351562-.300781.851563-.453125 1.746094-.449219 2.648438h-13.597656c-28.242187.058594-52.050781 21.074219-55.617187 49.089844l-10.71875 85.917968c-.285157 2.277344.421875 4.566407 1.9375 6.285157 1.519531 1.722656 3.703125 2.707031 5.996093 2.707031h320c2.292969 0 4.476563-.984375 5.996094-2.707031 1.519532-1.71875 2.226563-4.007813 1.941406-6.285157l-10.722656-85.929687c-3.570312-28.011719-27.375-49.019531-55.613281-49.078125zm-83.90625 39.601562 11.847656-31.601562h27.648438zm-116.292969-92.175781c-.800781-1.785156-1.601562-3.625-2.234375-5.601562-2.464843-7.160157-3.617187-14.703125-3.40625-22.273438.089844-2.613281-1.105469-5.109375-3.199219-6.679687l-4.960937-3.679688c-1.9375-1.4375-4.421875-1.925781-6.757813-1.324218-2.335937.597656-4.277343 2.21875-5.28125 4.414062-5.234374 10.621094-8.640624 22.046875-10.074218 33.796875-.375 6.148437-.085938 12.316406.855468 18.402344-1.851562-2.882813-3.492187-5.898438-4.910156-9.015625-.800781-1.785156-1.601562-3.625-2.234375-5.601563-2.464843-7.15625-3.617187-14.703125-3.40625-22.269531 4.925781-16.726562 7.726563-34.003906 8.328125-51.425781-.035156-4.394531-3.605468-7.9375-8-7.9375h-.121094c-4.410156.042969-7.957031 3.644531-7.925781 8.058593-1.023437 18.976563-4.402343 37.753907-10.066406 55.894532-1.941406 7.328125-3.800781 14.34375-5.238281 20.914062-5.914063-24-4-55.832031-2.28125-84.945312.800781-12.929688 1.503906-25.152344 1.503906-36.082032.007812-83.886718 75.367188-152.070312 168.007812-152.070312 92.640626 0 168 68.183594 168 152 0 10.929688.730469 23.152344 1.503907 36.078125 1.785156 29.882813 3.738281 62.609375-2.757813 86.824219-2.035156-11.414063-4.914062-22.789063-6.785156-29.71875-1.058594-3.925782-4.890625-6.433594-8.910156-5.832032-4.019532.601563-6.949219 4.121094-6.808594 8.183594.207031 7.59375-.953125 15.160156-3.433594 22.335938-.640625 1.929687-1.433594 3.769531-2.167968 5.464844-1.429688 3.144531-3.082032 6.179687-4.945313 9.089843.9375-6.074219 1.21875-12.230469.847656-18.363281-.945312-9.335938-3.378906-18.460938-7.199219-27.03125-1.335937-3.222656-4.609374-5.210938-8.085937-4.90625s-6.355469 2.828125-7.113281 6.234375c-1.09375 3.011719-2.589844 5.863281-4.449219 8.472656-2.566406 3.796875-4.695313 7.875-6.34375 12.152344-.527344 1.511719-1.152344 2.984375-1.75 4.40625l-.367187.898437c-1.230469 2.699219-2.625 5.320313-4.175782 7.847657.769532-5.484375.984375-11.035157.636719-16.5625 0-.496094.128906-1.160157.257813-2.039063 0-.101562 0-.289062 0-.480468v-.839844c1.183593-7.695313 15.007812-50.175782 23.582031-75.574219.078125-.867187.234375-1.722656.464843-2.5625v-.078125c-.011718-.085938-.03125-.171875-.054687-.257812-.050781-.476563-.144531-.953126-.28125-1.414063-.089844-.582031-.246094-1.148437-.464844-1.695313-.125-.203124-.261719-.402343-.40625-.59375-.378906-.691406-.859375-1.324218-1.425781-1.871093-.132812-.128907-.320312-.191407-.460938-.3125-.667968-.542969-1.414062-.976563-2.21875-1.28125-.042968-.023438-.085937-.046875-.125-.078125-.242187-.082032-.480468 0-.722656-.089844-.597656-.195312-1.214844-.316406-1.839844-.367188-.136718 0-.253906.074219-.390624.082032-.355469.042968-.710938.109375-1.058594.199218-.644532.097657-1.28125.273438-1.886719.519532-.324219.179687-.632813.382812-.925781.609375-.433594.226562-.847656.496093-1.234375.796875-4.496094 3.621094-9.316407 6.816406-14.398438 9.554687 12.480469-19.398437 19.363281-41.863281 19.894531-64.921875 0-1.949218 0-3.902344-.078124-5.519531v-2.878906c-.003907-3.984375-2.9375-7.363281-6.886719-7.917969-3.945313-.554688-7.699219 1.878906-8.800781 5.710938-2.488282 8.292968-5.960938 16.257812-10.347657 23.726562-2.066406 3.53125-4.3125 6.953125-6.726562 10.257812.3125-2.640624.648437-5.265624.800781-8 .058594-.347656.101562-.691406.121094-1.042968.09375-1.648438.09375-3.398438.09375-5.152344.167968-13.078125-2.203125-26.0625-6.984375-38.238281-.105469-.273438-.222657-.539063-.359375-.800781-5.757813-13.382813-14.742188-21.023438-24.832032-21.023438-4.417968 0-8 3.582031-8 8v56h-80v-56c-.074218-4.449219-3.710937-8.015625-8.160156-8-9.863281 0-18.800781 7.535156-24.542968 20.703125-.257813.480469-.433594.9375-.601563 1.335937-4.699219 12.097657-7.027344 24.984376-6.855469 37.960938 0 1.753906 0 3.503906.097656 5.152344.019532.3125.050782.621094.101563.925781.128906 2.792969.457031 5.449219.800781 8.121094-2.40625-3.285157-4.648437-6.6875-6.710937-10.199219-4.390625-7.464844-7.867188-15.433594-10.359375-23.726562-1.089844-3.796876-4.785156-6.234376-8.703125-5.734376s-6.886719 3.785157-6.984375 7.734376l-.082032 2.894531c-.078124 1.871093-.085937 3.832031-.085937 5.792969.507813 25.632812 8.917969 50.480468 24.085937 71.152343-1.808593-.503906-3.535156-1.269531-5.121093-2.28125-2.589844-2.070312-6.195313-2.328125-9.054688-.640625-2.859375 1.683594-4.378906 4.960938-3.824219 8.234375 1.527344 8.925781 3.3125 18.597657 5.007813 27.8125 1.953125 10.570313 3.792969 20.523438 5.007813 28.175781.519531 2.914063.898437 5.539063 1.121093 7.578126.152344 1.019531.246094 2.042968.289063 3.070312-.375 6.148438-.089844 12.316406.855468 18.402344-1.839843-2.894532-3.472656-5.914063-4.878906-9.039063zm18.039063-24.960937c-1.199219-7.3125-2.871094-16.410156-4.664063-26.121094-.800781-4.441406-1.65625-8.976562-2.472656-13.488281 4.753906 1.296875 10.0625 2.402343 15.527344 3.550781 2.488281.515625 4.503906.914062 5.65625 1.234375 3.714844 1.007813 7.621094-.769531 9.300781-4.230469 1.675781-3.464844.652344-7.632812-2.445313-9.921875-12.746093-11.078125-22.601562-25.097656-28.710937-40.839843.871094 1.09375 1.777344 2.070312 2.671875 3.113281.800781.902343 1.542969 1.855469 2.328125 2.710937 1.085937 1.183594 2.183594 2.238282 3.289063 3.328125.734374.726563 1.460937 1.519531 2.207031 2.199219 1.222656 1.128906 2.457031 2.113281 3.679687 3.113281.625.503907 1.25 1.085938 1.871094 1.597657 1.613281 1.21875 3.289062 2.351562 5.015625 3.394531 1.386719 1.128906 3.117187 1.75 4.90625 1.765625h.160156c.085938 0 .175781 0 .261719-.046875.640625-.039063 1.273438-.15625 1.882812-.351563.304688-.058594.605469-.132812.902344-.226562.917969-.375 1.757813-.917969 2.480469-1.597656 2.558594-2.484376 3.136719-6.375 1.40625-9.496094-.113281-.238282-.242187-.472656-.382813-.695313-5.414062-10.035156-8.269531-21.253906-8.3125-32.65625 0-.167969 0-.328125-.046874-.496093-.046876-.167969.046874-.199219.046874-.304688-.03125-.203125-.074218-.40625-.128906-.609375 0-1.109375 0-2.246094 0-3.390625-.183594-10.679688 1.648438-21.300781 5.394532-31.304688.128906-.246093.238281-.511718.351562-.800781.113281-.285156.175781-.351562.246094-.527343.625-1.476563 1.339844-2.917969 2.136718-4.3125v48.945312c0 4.417969 3.582032 8 8 8h96c4.417969 0 8-3.582031 8-8v-48.945312c.8125 1.402343 1.535157 2.847656 2.167969 4.335937.105469.242187.214844.472656.335938.707031-.039063-.082031-.0625-.136718 0 .09375 3.886719 10.148438 5.789062 20.945313 5.601562 31.808594v3.464844c-.070312.367187-.113281.742187-.128906 1.121094-.015625 11.46875-2.867187 22.753906-8.304687 32.855468-.128907.207032-.246094.421875-.359376.648438-1.757812 3.125-1.195312 7.042968 1.375 9.542968.722657.679688 1.5625 1.222657 2.480469 1.597657.304688.09375.617188.171875.929688.234375.597656.183594 1.214843.300781 1.839843.34375.09375 0 .183594.046875.277344.046875h.160156c1.769532-.015625 3.476563-.625 4.859376-1.726563.351562-.21875.703124-.488281 1.054687-.722656 1.320313-.839844 2.632813-1.679688 3.960937-2.679688.613282-.46875 1.230469-1.039062 1.855469-1.542968 1.230469-1 2.464844-1.992188 3.6875-3.121094.648438-.589844 1.273438-1.269531 1.910157-1.894531 1.203124-1.167969 2.402343-2.328125 3.570312-3.609375.679688-.734375 1.34375-1.550782 2.015625-2.320313.902344-1.046875 1.824219-2.039062 2.71875-3.140625-5.988281 15.457032-15.664063 29.21875-28.183594 40.085938-3.0625 1.882812-4.492187 5.570312-3.5 9.027344.992188 3.453124 4.164063 5.820312 7.757813 5.789062h.160156c.953125-.003906 1.898438-.179688 2.789062-.519531 10.429688-3.113281 20.53125-7.226563 30.167969-12.28125-6.398437 19.34375-14.582031 45.046875-16.695312 54.921875-14.699219 10.609375-31.8125 17.390625-49.792969 19.726562-20.253906 3.273438-40.941406 2.785156-61.023438-1.433594-19.078124-3.097656-36.675781-12.1875-50.246093-25.949218zm56.558593 43.398437c9.265626 1.4375 18.625 2.152344 28 2.136719 6.683594-.042969 13.363282-.449219 20-1.222656v25.222656c-3.335937-.003906-6.320312 2.0625-7.496093 5.183594l-16.503907 44.023437-16.503906-44c-1.164062-3.128906-4.15625-5.207031-7.496094-5.207031zm-5.542968 42.136719 11.847656 31.601562-39.496094-31.601562zm61.542968 120h-182.941406l9.597656-76.921875c2.554688-20.015625 19.5625-35.03125 39.746094-35.078125h28.796875l49.363281 39.488281c-3.203124 7.34375-5.929687 15.320313-8.152343 22.007813-4.484375 13.574218-7.308594 27.640625-8.410157 41.894531-.167968 2.125.519532 4.222656 1.902344 5.839844 1.386719 1.617187 3.359375 2.613281 5.480469 2.769531h.617187c4.191407.011719 7.683594-3.210938 8-7.390625 1.023438-13.199219 3.660157-26.21875 7.847657-38.777344 1.554687-4.664062 3.503906-10.398437 5.730469-15.945312l2.445312 1.960937v44.152344c0 4.417969 3.582031 8 8 8s8-3.582031 8-8v-44.152344l2.449219-1.960937c2.246093 5.601562 4.257812 11.503906 5.953125 16.617187 4.054687 12.347656 6.597656 25.144532 7.574218 38.105469.320313 4.179687 3.808594 7.402344 8 7.390625h.625c2.121094-.160156 4.089844-1.15625 5.476563-2.773438 1.382813-1.613281 2.066406-3.714843 1.898437-5.835937-1.136718-14.496094-4.035156-28.796875-8.640624-42.589844-2.039063-6.128906-4.695313-14-7.910157-21.289062l49.351563-39.511719h28.800781c20.179687.042969 37.191406 15.054688 39.742187 35.070312l9.601563 76.929688zm0 0"/><path d="m75.226562 416h-16c-4.417968 0-8 3.582031-8 8s3.582032 8 8 8h16c4.417969 0 8-3.582031 8-8s-3.582031-8-8-8zm0 0"/><path d="m139.226562 416h-40c-4.417968 0-8 3.582031-8 8s3.582032 8 8 8h40c4.417969 0 8-3.582031 8-8s-3.582031-8-8-8zm0 0"/><path d="m307.226562 416h-64c-4.417968 0-8 3.582031-8 8s3.582032 8 8 8h64c4.417969 0 8-3.582031 8-8s-3.582031-8-8-8zm0 0"/></svg>