<svg height="512pt" viewBox="0 -39 512 512" width="512pt" xmlns="http://www.w3.org/2000/svg"><path d="m489.511719 0h-467.023438c-12.417969 0-22.488281 10.070312-22.488281 22.488281v311.308594c0 12.421875 10.070312 22.488281 22.488281 22.488281h178.246094v39.304688h-21.226563c-10.6875 0-19.355468 8.664062-19.355468 19.355468 0 10.6875 8.667968 19.355469 19.355468 19.355469h152.984376c10.691406 0 19.355468-8.667969 19.355468-19.355469 0-10.691406-8.667968-19.355468-19.355468-19.355468h-21.226563v-39.304688h178.246094c12.417969 0 22.488281-10.066406 22.488281-22.488281v-311.308594c0-12.417969-10.070312-22.488281-22.488281-22.488281zm-152.65625 414.945312c0 2.410157-1.953125 4.363282-4.363281 4.363282h-152.984376c-2.410156 0-4.363281-1.953125-4.363281-4.363282 0-2.410156 1.953125-4.363281 4.363281-4.363281h152.980469c2.410157 0 4.367188 1.953125 4.367188 4.363281zm160.152343-81.148437c0 4.132813-3.363281 7.496094-7.496093 7.496094h-235.011719c-4.140625 0-7.496094 3.355469-7.496094 7.496093 0 4.140626 3.355469 7.496094 7.496094 7.496094h41.769531v39.304688h-80.539062v-39.304688h3.785156c4.140625 0 7.496094-3.355468 7.496094-7.496094 0-4.140624-3.355469-7.496093-7.496094-7.496093h-197.027344c-4.132812 0-7.496093-3.363281-7.496093-7.496094v-311.308594c0-4.132812 3.363281-7.496093 7.496093-7.496093h467.023438c4.132812 0 7.496093 3.363281 7.496093 7.496093zm0 0"/><path d="m468.902344 33.769531h-425.804688c-6.886718 0-12.492187 5.601563-12.492187 12.492188v250.707031c0 6.886719 5.605469 12.492188 12.492187 12.492188h425.804688c6.886718 0 12.492187-5.605469 12.492187-12.492188v-250.707031c0-6.890625-5.605469-12.492188-12.492187-12.492188zm-369.003906 14.992188v83.460937h-26.3125c-4.144532 0-7.5 3.355469-7.5 7.496094s3.355468 7.496094 7.5 7.496094h26.3125v41.953125c0 1.378906-1.121094 2.5-2.5 2.5h-51.800782v-142.90625zm-54.300782 245.707031v-87.808594h51.800782c9.644531 0 17.492187-7.847656 17.492187-17.492187v-140.40625h351.511719v142.488281h-55.808594c-1.375 0-2.496094-1.121094-2.496094-2.5v-112.945312c0-4.140626-3.359375-7.5-7.5-7.5s-7.496094 3.355468-7.496094 7.5v112.945312c0 9.644531 7.847657 17.492188 17.492188 17.492188h55.808594v88.226562zm0 0"/><path d="m452.9375 257.757812h-60.660156c-3.21875-10.582031-13.0625-18.304687-24.683594-18.304687s-21.46875 7.722656-24.6875 18.304687h-184.640625c-3.21875-10.582031-13.066406-18.304687-24.6875-18.304687-11.617187 0-21.464844 7.722656-24.683594 18.304687h-46.257812c-4.140625 0-7.496094 3.355469-7.496094 7.496094s3.355469 7.5 7.496094 7.5h46.253906c3.21875 10.582032 13.066406 18.304688 24.6875 18.304688s21.46875-7.722656 24.6875-18.304688h184.640625c3.21875 10.582032 13.066406 18.304688 24.683594 18.304688 11.621094 0 21.46875-7.722656 24.6875-18.304688h60.65625c4.140625 0 7.496094-3.359375 7.496094-7.5.003906-4.140625-3.355469-7.496094-7.492188-7.496094zm-319.359375 18.304688c-5.957031 0-10.804687-4.847656-10.804687-10.808594 0-5.960937 4.847656-10.808594 10.804687-10.808594 5.960937 0 10.808594 4.847657 10.808594 10.808594 0 5.960938-4.847657 10.808594-10.808594 10.808594zm234.015625 0c-5.960938 0-10.808594-4.847656-10.808594-10.808594 0-5.960937 4.847656-10.808594 10.808594-10.808594 5.957031 0 10.804688 4.847657 10.804688 10.808594 0 5.960938-4.847657 10.808594-10.804688 10.808594zm0 0"/><path d="m452.9375 221.03125h-218.628906c-3.21875-10.582031-13.066406-18.304688-24.6875-18.304688-11.617188 0-21.464844 7.722657-24.683594 18.304688h-122.300781c-4.140625 0-7.496094 3.355469-7.496094 7.496094 0 4.144531 3.355469 7.5 7.496094 7.5h122.300781c3.21875 10.582031 13.066406 18.304687 24.683594 18.304687 11.621094 0 21.46875-7.722656 24.6875-18.304687h218.625c4.140625 0 7.5-3.355469 7.5-7.5 0-4.140625-3.359375-7.496094-7.496094-7.496094zm-243.316406 18.304688c-5.953125 0-10.800782-4.84375-10.804688-10.796876 0-.003906 0-.007812 0-.011718s0-.003906 0-.007813c.003906-5.957031 4.851563-10.800781 10.804688-10.800781 5.960937 0 10.808594 4.847656 10.808594 10.808594 0 5.960937-4.847657 10.808594-10.808594 10.808594zm0 0"/><path d="m214.878906 196.25c2.738282 1.582031 5.742188 2.371094 8.75 2.371094 3 0 6.003906-.789063 8.742188-2.371094l91.488281-52.820312c5.476563-3.160157 8.746094-8.824219 8.746094-15.148438 0-6.320312-3.269531-11.984375-8.746094-15.148438l-91.488281-52.820312c-5.472656-3.160156-12.015625-3.160156-17.492188 0-5.476562 3.164062-8.746094 8.828125-8.746094 15.148438v105.640624c0 6.324219 3.269532 11.988282 8.746094 15.148438zm6.25-120.789062c0-1.253907.78125-1.894532 1.246094-2.164063.277344-.160156.71875-.347656 1.257812-.347656.375 0 .796876.089843 1.242188.347656l91.488281 52.820313c1.085938.625 1.246094 1.625 1.246094 2.164062s-.160156 1.535156-1.246094 2.164062l-91.488281 52.820313c-1.085938.628906-2.03125.269531-2.5 0-.464844-.269531-1.246094-.910156-1.246094-2.164063zm0 0"/></svg>